<svg xmlns="http://www.w3.org/2000/svg" version="1.1" xmlns:xlink="http://www.w3.org/1999/xlink" xmlns:svgjs="http://svgjs.dev/svgjs" width="1000" height="1000" viewBox="0 0 1000 1000"><rect width="1000" height="1000" fill="#ffffff"></rect><g transform="matrix(0.7,0,0,0.7,150.0000000000001,106.25)"><svg viewBox="0 0 320 360" data-background-color="#ffffff" preserveAspectRatio="xMidYMid meet" height="1125" width="1000" xmlns="http://www.w3.org/2000/svg" xmlns:xlink="http://www.w3.org/1999/xlink"><defs></defs><g id="tight-bounds" transform="matrix(1,0,0,1,0,0)"><svg viewBox="0 0 320 360" height="360" width="320"><g><svg></svg></g><g><svg viewBox="0 0 320 360" height="360" width="320"><g><path d="M20.961 227.22l3.726 4.658-1.863-6.056c-0.466-2.795-3.726 0.466-1.863 1.398M25.153 224.425c1.397 2.329 2.795 4.658 2.795 6.987 0 3.261 2.795 4.658 5.123 5.589-3.261-3.726-5.124-13.974-7.918-12.576M204.017 26.929c7.918 0 15.371-0.932 23.756 0.931 20.495 5.124 37.729 15.371 49.374 29.811l32.606 52.169c1.397 13.042 4.192 27.482 3.726 43.319 3.261 0 2.795-4.658 6.521-5.59-3.726 9.316-5.59 20.961-6.521 34.469-2.329-7.453 0-18.632 0.466-24.687-3.261 5.124-5.124 1.397-5.124-0.932 0.466-3.726-1.397-3.261-2.795-4.658-5.124-4.658-8.384-9.782-12.11-17.7 2.329-6.055 2.795-14.905-4.658-19.563-2.329-1.397-5.124-3.726-6.521-7.453-1.863-5.124-5.124-11.179-4.193-19.097 0.466-2.329-6.987 5.124-11.179 1.863-18.166-12.576-36.332-27.016-58.224-39.127-11.645 0-20.029-4.192-24.221-9.316-3.726-4.658-0.932-10.713 4.658-11.179 3.261 0 6.987-0.932 9.782 0.932 0.466-1.863 2.329-4.192 4.657-4.192M157.904 16.215l0.932 0.466c4.658 0.932 6.987 7.453 12.11 5.124 0 3.261 0.466 6.521-0.466 8.85-1.397 3.726-5.59 3.726-8.85 3.726-31.208-1.863-49.374 11.179-68.471 22.358-5.124 3.261-10.713 5.59-14.906 9.782-20.029 18.632-41.921 35.866-47.045 70.335l-4.192 38.195c-0.466 4.192-5.124 8.384-4.192 13.508l3.26 22.824c-3.261-3.261-5.124 0.932-4.192 2.795 0.466 1.397 2.329 6.055 5.124 1.863 3.726 6.987 7.453 20.495 12.576 26.55 15.837 18.632 36.332 35.4 53.101 52.169 4.192-0.932 7.453-0.932 8.384-3.727 1.397 2.795-1.397 5.59-3.726 6.056 7.453 4.658 15.837 8.85 27.016 9.781 14.44 0.932 27.948 3.261 40.524 6.522 6.521-1.863 13.042-2.795 20.029-3.261 2.329 0 3.726-3.726 6.521-4.658l0.466-4.658c2.795 4.192 2.329-1.397 0.466-4.192 3.261 2.795 4.192 5.124 5.589 6.987 0-1.397 3.726-6.521 3.727-0.466l0.931-6.055c1.397-0.932 1.863 5.124 3.261 0.931 1.397-4.192 4.192-0.932 6.987-2.329-0.932 1.863-0.466 5.59 2.794 3.261l3.727-3.261c2.329 5.59 6.055 3.261 7.918 2.329 20.495-13.042 40.99-28.413 60.553-43.784l-0.466 6.055 2.329-7.453c2.329 2.329 4.192 0.466 5.124-0.931 2.795-4.658 6.521-9.316 12.577-13.508-7.453 20.029-16.303 35.866-27.482 48.908l-4.658 5.59c0 3.261-0.932 7.453-4.658 7.918-1.863 0.466-5.59-0.932-8.384 1.863-1.397 1.863 3.261 5.59-0.466 2.795-3.261-2.329-6.521 0-10.248 0.932-2.795 0.932 1.863 3.726 2.795 5.589 0.932 1.863 1.863 3.726 1.398 6.056l-5.124-5.59c-6.055 3.261-9.782 9.316-14.906 13.974-2.329 1.863-1.397 5.124-1.397 7.918-3.261 0-6.987-0.932-8.85 0.932-1.397 1.863-0.932 4.658-0.932 7.453-4.658-0.466-5.124-7.453-9.315-6.056-4.192 0.932-8.85 1.397-12.577 3.727 2.795 5.59-4.658 2.329-3.726 3.26-6.987-4.192-13.042-7.453-20.495-4.658-15.837-5.124-35.4-2.795-49.84-0.931 0-2.329 0.466-4.658-0.466-5.124-0.932 2.329-3.726 1.397-3.26 1.397-8.85-6.055-17.7-9.782-27.016-14.905-8.384 0.932-16.303-3.261-18.632-5.59-6.521-6.055-13.974-2.795-20.029-4.192-13.042-3.261-17.7-16.769-19.098-26.084-0.932-4.658-4.658-6.521-6.055-6.056-6.055-19.563-15.371-37.263-22.824-55.429-1.863-4.658-1.397-9.316-1.397-14.44 2.329 0.932 4.658 0.466 4.192-2.794-2.329-15.371-7.918-27.016-13.974-38.195 3.261-15.837 3.726-34.469 11.179-48.443 6.521-12.576 18.632-19.098 27.016-29.811 2.795-3.726 2.795-8.85 5.59-12.11 9.316-9.316 18.632-19.098 28.879-27.482 4.658-3.726 10.247 0 17.234-1.397 2.329-8.384 11.645-15.837 20.495-13.508 3.726 0.932 11.179-8.85 13.508-9.782 3.726-1.397 1.863 3.726 1.863 6.987 8.85-6.987 20.961-10.713 32.14-14.906" fill="#31c48d" data-fill-palette-color="tertiary"></path></g><g transform="matrix(1,0,0,1,64,114.08866099315509)"><svg viewBox="0 0 192 131.82267801368982" height="131.82267801368982" width="192"><g><svg viewBox="0 0 192 131.82267801368982" height="131.82267801368982" width="192"><g><svg viewBox="0 0 192 131.82267801368982" height="131.82267801368982" width="192"><g transform="matrix(1,0,0,1,0,78.33899309390374)"><svg viewBox="0 0 192 53.483684919786086" height="53.483684919786086" width="192"><g><svg viewBox="0 0 192 53.483684919786086" height="53.483684919786086" width="192"><g><svg viewBox="0 0 192 30.320855614973258" height="30.320855614973258" width="192"><g transform="matrix(1,0,0,1,0,0)"><svg width="192" viewBox="4.400000095367432 -37.150001525878906 299.1600036621094 47.25" height="30.320855614973258" data-palette-color="#31c48d"><path d="M13.15-26.6Q16.9-26.6 18.93-23.25 20.95-19.9 20.95-13.2L20.95-13.2Q20.95-6.6 18.8-3.03 16.65 0.55 12.8 0.55L12.8 0.55Q10.8 0.55 9.25-0.48 7.7-1.5 6.65-3.15L6.65-3.15 6.65 9.75 4.4 10.1 4.4-26.1 6.35-26.1 6.5-22.3Q9.15-26.6 13.15-26.6L13.15-26.6ZM12.5-1.45Q18.55-1.45 18.55-13.2L18.55-13.2Q18.55-19.1 17.13-21.88 15.7-24.65 12.85-24.65L12.85-24.65Q10.9-24.65 9.45-23.48 8-22.3 6.65-20.15L6.65-20.15 6.65-5.6Q9.1-1.45 12.5-1.45L12.5-1.45ZM41.25-4.8Q41.25-3.15 41.67-2.33 42.1-1.5 43.05-1.05L43.05-1.05 42.55 0.55Q41 0.15 40.22-0.88 39.45-1.9 39.3-3.75L39.3-3.75Q36.95 0.55 32.65 0.55L32.65 0.55Q29.55 0.55 27.77-1.58 26-3.7 26-7.25L26-7.25Q26-11.3 28.42-13.45 30.85-15.6 35.3-15.6L35.3-15.6 39.05-15.6 39.05-18.8Q39.05-21.75 37.9-23.23 36.75-24.7 34.25-24.7L34.25-24.7Q32.75-24.7 31.32-24.33 29.9-23.95 28.2-23.25L28.2-23.25 27.5-24.9Q31.2-26.6 34.4-26.6L34.4-26.6Q37.85-26.6 39.55-24.63 41.25-22.65 41.25-18.95L41.25-18.95 41.25-4.8ZM32.95-1.35Q37.05-1.35 39.05-6.4L39.05-6.4 39.05-13.85 35.5-13.85Q28.35-13.85 28.35-7.3L28.35-7.3Q28.35-4.4 29.57-2.88 30.8-1.35 32.95-1.35L32.95-1.35ZM55.3-26.6Q59.1-26.6 62.09-23.75L62.09-23.75 60.95-22.35Q59.5-23.6 58.25-24.15 57-24.7 55.35-24.7L55.35-24.7Q53.15-24.7 51.8-23.43 50.45-22.15 50.45-19.9L50.45-19.9Q50.45-18 51.62-16.88 52.8-15.75 55.85-14.6L55.85-14.6Q59.5-13.25 61.07-11.55 62.65-9.85 62.65-6.9L62.65-6.9Q62.65-3.55 60.47-1.5 58.3 0.55 55 0.55L55 0.55Q52.6 0.55 50.77-0.33 48.95-1.2 47.35-2.8L47.35-2.8 48.6-4.1Q50.1-2.7 51.57-2.02 53.05-1.35 54.95-1.35L54.95-1.35Q57.35-1.35 58.87-2.8 60.4-4.25 60.4-6.85L60.4-6.85Q60.4-8.45 59.87-9.47 59.35-10.5 58.12-11.3 56.9-12.1 54.6-13L54.6-13Q51.15-14.3 49.67-15.88 48.2-17.45 48.2-19.9L48.2-19.9Q48.2-22.8 50.22-24.7 52.25-26.6 55.3-26.6L55.3-26.6ZM69.19-26.1L71.44-26.1 71.44 0 69.19 0 69.19-26.1ZM70.29-37.15Q71.04-37.15 71.52-36.65 71.99-36.15 71.99-35.45L71.99-35.45Q71.99-34.75 71.52-34.25 71.04-33.75 70.29-33.75L70.29-33.75Q69.54-33.75 69.07-34.25 68.59-34.75 68.59-35.45L68.59-35.45Q68.59-36.15 69.07-36.65 69.54-37.15 70.29-37.15L70.29-37.15ZM96.99-26.6Q100.79-26.6 103.79-23.75L103.79-23.75 102.64-22.35Q101.19-23.6 99.94-24.15 98.69-24.7 97.04-24.7L97.04-24.7Q94.84-24.7 93.49-23.43 92.14-22.15 92.14-19.9L92.14-19.9Q92.14-18 93.31-16.88 94.49-15.75 97.54-14.6L97.54-14.6Q101.19-13.25 102.76-11.55 104.34-9.85 104.34-6.9L104.34-6.9Q104.34-3.55 102.16-1.5 99.99 0.55 96.69 0.55L96.69 0.55Q94.29 0.55 92.46-0.33 90.64-1.2 89.04-2.8L89.04-2.8 90.29-4.1Q91.79-2.7 93.26-2.02 94.74-1.35 96.64-1.35L96.64-1.35Q99.04-1.35 100.56-2.8 102.09-4.25 102.09-6.85L102.09-6.85Q102.09-8.45 101.56-9.47 101.04-10.5 99.81-11.3 98.59-12.1 96.29-13L96.29-13Q92.84-14.3 91.36-15.88 89.89-17.45 89.89-19.9L89.89-19.9Q89.89-22.8 91.91-24.7 93.94-26.6 96.99-26.6L96.99-26.6ZM119.64-26.6Q123.39-26.6 125.41-23.25 127.44-19.9 127.44-13.2L127.44-13.2Q127.44-6.6 125.29-3.03 123.14 0.55 119.29 0.55L119.29 0.55Q117.29 0.55 115.74-0.48 114.19-1.5 113.14-3.15L113.14-3.15 113.14 9.75 110.89 10.1 110.89-26.1 112.84-26.1 112.99-22.3Q115.64-26.6 119.64-26.6L119.64-26.6ZM118.99-1.45Q125.04-1.45 125.04-13.2L125.04-13.2Q125.04-19.1 123.61-21.88 122.19-24.65 119.34-24.65L119.34-24.65Q117.39-24.65 115.94-23.48 114.49-22.3 113.14-20.15L113.14-20.15 113.14-5.6Q115.59-1.45 118.99-1.45L118.99-1.45ZM142.78-26.6Q143.73-26.6 144.83-26.3L144.83-26.3 144.43-24.3Q143.43-24.55 142.63-24.55L142.63-24.55Q140.43-24.55 139.06-22.63 137.68-20.7 136.73-16.75L136.73-16.75 136.73 0 134.48 0 134.48-26.1 136.43-26.1 136.58-20.8Q137.53-23.75 139.03-25.18 140.53-26.6 142.78-26.6L142.78-26.6ZM164.93-14.1Q164.93-13.05 164.83-12.05L164.83-12.05 150.33-12.05Q150.73-1.45 157.18-1.45L157.18-1.45Q158.88-1.45 160.18-2.05 161.48-2.65 162.88-3.95L162.88-3.95 164.08-2.6Q162.58-1.05 160.91-0.25 159.23 0.55 157.18 0.55L157.18 0.55Q152.88 0.55 150.46-2.88 148.03-6.3 148.03-12.85L148.03-12.85Q148.03-19.5 150.36-23.05 152.68-26.6 156.73-26.6L156.73-26.6Q160.78-26.6 162.86-23.4 164.93-20.2 164.93-14.1L164.93-14.1ZM162.73-13.85L162.73-14.85Q162.73-24.65 156.73-24.65L156.73-24.65Q153.93-24.65 152.21-22.08 150.48-19.5 150.33-13.85L150.33-13.85 162.73-13.85ZM186.73 0.55Q185.03 0.55 184-0.55 182.98-1.65 182.98-3.6L182.98-3.6 182.98-36.75 185.23-37.05 185.23-3.65Q185.23-2.6 185.68-2 186.13-1.4 187.03-1.4L187.03-1.4Q187.78-1.4 188.48-1.75L188.48-1.75 189.08-0.1Q187.98 0.55 186.73 0.55L186.73 0.55ZM209.77-26.1L209.77 0 207.87 0 207.72-4.55Q205.07 0.55 200.77 0.55L200.77 0.55Q197.92 0.55 196.25-1.4 194.57-3.35 194.57-6.65L194.57-6.65 194.57-26.1 196.82-26.1 196.82-6.85Q196.82-4.15 197.95-2.78 199.07-1.4 201.07-1.4L201.07-1.4Q204.92-1.4 207.52-7L207.52-7 207.52-26.1 209.77-26.1ZM239.37-26.6Q241.97-26.6 243.45-24.55 244.92-22.5 244.92-19.1L244.92-19.1 244.92 0 242.72 0 242.72-18.8Q242.72-21.7 241.77-23.2 240.82-24.7 239.02-24.7L239.02-24.7Q235.67-24.7 232.87-19.05L232.87-19.05 232.87 0 230.67 0 230.67-18.8Q230.67-21.7 229.7-23.2 228.72-24.7 226.97-24.7L226.97-24.7Q223.57-24.7 220.77-19.05L220.77-19.05 220.77 0 218.57 0 218.57-26.1 220.52-26.1 220.67-21.6Q223.47-26.6 227.27-26.6L227.27-26.6Q229.37-26.6 230.77-25.23 232.17-23.85 232.62-21.4L232.62-21.4Q235.42-26.6 239.37-26.6L239.37-26.6ZM253.52-26.1L255.77-26.1 255.77 0 253.52 0 253.52-26.1ZM254.62-37.15Q255.37-37.15 255.84-36.65 256.32-36.15 256.32-35.45L256.32-35.45Q256.32-34.75 255.84-34.25 255.37-33.75 254.62-33.75L254.62-33.75Q253.87-33.75 253.39-34.25 252.92-34.75 252.92-35.45L252.92-35.45Q252.92-36.15 253.39-36.65 253.87-37.15 254.62-37.15L254.62-37.15ZM274.07-26.6Q276.92-26.6 278.44-24.6 279.97-22.6 279.97-19.1L279.97-19.1 279.97 0 277.72 0 277.72-18.8Q277.72-24.7 273.67-24.7L273.67-24.7Q269.92-24.7 266.82-18.85L266.82-18.85 266.82 0 264.57 0 264.57-26.1 266.52-26.1 266.72-21.45Q268.17-23.95 269.92-25.28 271.67-26.6 274.07-26.6L274.07-26.6ZM301.76-4.8Q301.76-3.15 302.19-2.33 302.61-1.5 303.56-1.05L303.56-1.05 303.06 0.55Q301.51 0.15 300.74-0.88 299.96-1.9 299.81-3.75L299.81-3.75Q297.46 0.55 293.16 0.55L293.16 0.55Q290.06 0.55 288.29-1.58 286.51-3.7 286.51-7.25L286.51-7.25Q286.51-11.3 288.94-13.45 291.36-15.6 295.81-15.6L295.81-15.6 299.56-15.6 299.56-18.8Q299.56-21.75 298.41-23.23 297.26-24.7 294.76-24.7L294.76-24.7Q293.26-24.7 291.84-24.33 290.41-23.95 288.71-23.25L288.71-23.25 288.01-24.9Q291.71-26.6 294.91-26.6L294.91-26.6Q298.36-26.6 300.06-24.63 301.76-22.65 301.76-18.95L301.76-18.95 301.76-4.8ZM293.46-1.35Q297.56-1.35 299.56-6.4L299.56-6.4 299.56-13.85 296.01-13.85Q288.86-13.85 288.86-7.3L288.86-7.3Q288.86-4.4 290.09-2.88 291.31-1.35 293.46-1.35L293.46-1.35Z" opacity="1" transform="matrix(1,0,0,1,0,0)" fill="#31c48d" class="undefined-text-0" data-fill-palette-color="primary" id="text-0"></path></svg></g></svg></g><g transform="matrix(1,0,0,1,0,34.74539614973261)"><svg viewBox="0 0 192 18.73828877005347" height="18.73828877005347" width="192"><g transform="matrix(1,0,0,1,0,0)"><svg width="192" viewBox="2.25 -35 363.75 35.5" height="18.73828877005347" data-palette-color="#31c48d"><path d="M3.55-35L21.2-35Q22.05-35 22.05-30.58 22.05-26.15 21.2-26.15L21.2-26.15 12.05-26.15 12.05-20.45 18.15-20.45Q19-20.45 19-16.57 19-12.7 18.2-12.7L18.2-12.7 12.05-12.7 12.05-0.65Q12.05 0.05 10.18 0.28 8.3 0.5 7.05 0.5L7.05 0.5 4.7 0.4Q2.25 0.1 2.25-0.6L2.25-0.6 2.25-33.7Q2.25-34.5 2.58-34.75 2.9-35 3.55-35L3.55-35ZM114.28-18.15L114.28-18.15Q112.88-20.65 112.88-22.23 112.88-23.8 113.73-24.25L113.73-24.25Q116.58-25.5 121.56-25.5 126.53-25.5 128.58-23.18 130.63-20.85 130.63-16.3L130.63-16.3 130.63-8.4 132.33-8.4Q133.18-8.4 133.66-7.4 134.13-6.4 134.13-4.65 134.13-2.9 133.26-1.2 132.38 0.5 130.88 0.5L130.88 0.5Q128.18 0.5 126.53-0.95L126.53-0.95Q125.78-1.55 125.38-2.4L125.38-2.4Q123.08 0.5 118.23 0.5L118.23 0.5Q114.58 0.5 112.08-2.1 109.58-4.7 109.58-8.25L109.58-8.25Q109.58-16.4 119.33-16.4L119.33-16.4 122.08-16.4 122.08-16.9Q122.08-18.2 121.66-18.57 121.23-18.95 119.68-18.95L119.68-18.95Q117.78-18.95 114.28-18.15ZM118.28-8.95L118.28-8.95Q118.28-7.85 118.88-7.28 119.48-6.7 120.41-6.7 121.33-6.7 122.08-7.45L122.08-7.45 122.08-11.3 120.68-11.3Q118.28-11.3 118.28-8.95ZM234.96-14L234.96-0.05Q234.96 0.3 230.41 0.3L230.41 0.3Q225.86 0.2 225.86-0.1L225.86-0.1 225.86-16.7 224.51-16.7Q223.71-16.7 223.24-17.68 222.76-18.65 222.76-20.1L222.76-20.1Q222.76-25.5 225.96-25.5L225.96-25.5Q228.21-25.5 229.71-24.13 231.21-22.75 231.21-21L231.21-21Q232.26-23.05 234.04-24.28 235.81-25.5 237.66-25.5L237.66-25.5Q240.56-25.5 241.16-24L241.16-24Q241.31-23.6 241.31-22.83 241.31-22.05 240.84-20.05 240.36-18.05 239.86-17.15 239.36-16.25 239.26-16.25 239.16-16.25 238.34-16.63 237.51-17 236.86-17L236.86-17Q234.96-17 234.96-14L234.96-14ZM353.5-16.3L353.5-0.25Q353.5 0.1 349.22 0.1 344.95 0.1 344.95-0.35L344.95-0.35 344.95-14.9Q344.95-17.4 343.3-17.4L343.3-17.4Q342.45-17.4 341.05-16.3L341.05-16.3 341.05-0.3Q341.05 0.2 336.77 0.2 332.5 0.2 332.5-0.35L332.5-0.35 332.5-16.7 331.25-16.7Q329.6-16.7 329.6-20.15L329.6-20.15Q329.6-21.7 330.2-23.3L330.2-23.3Q331-25.5 332.8-25.5 334.6-25.5 336.27-24.55 337.95-23.6 338.3-22.75L338.3-22.75Q341.4-25.5 345.17-25.5 348.95-25.5 351.25-23.15L351.25-23.15Q353.95-25.5 357.75-25.5L357.75-25.5Q366-25.5 366-15.45L366-15.45 366-0.25Q366 0.1 361.72 0.1 357.45 0.1 357.45-0.35L357.45-0.35 357.45-14.9Q357.45-17.4 355.8-17.4L355.8-17.4Q354.9-17.4 353.5-16.3L353.5-16.3Z" opacity="1" transform="matrix(1,0,0,1,0,0)" fill="#31c48d" class="undefined-text-1" data-fill-palette-color="secondary" id="text-1"></path></svg></g></svg></g></svg></g></svg></g><g transform="matrix(1,0,0,1,55.92434311134473,0)"><svg viewBox="0 0 80.15131377731053 73.91445255914438" height="73.91445255914438" width="80.15131377731053"><g><svg xmlns="http://www.w3.org/2000/svg" xmlns:xlink="http://www.w3.org/1999/xlink" version="1.1" x="0" y="0" viewBox="0.03409087657928467 3.9169998168945312 99.8529052734375 92.08299255371094" enable-background="new 0 0 100 100" xml:space="preserve" height="73.91445255914438" width="80.15131377731053" class="icon-icon-0" data-fill-palette-color="accent" id="icon-0"><g fill="#31c48d" data-fill-palette-color="accent"><path fill="#31c48d" d="M6.498 62H18v27.23c0 3.557 2.414 6.77 6.005 6.77h51.016C78.611 96 82 92.787 82 89.23V62h11.365c0.008 0 0.015 0 0.02 0 3.591 0 6.502-2.801 6.502-6.359 0-1.873-0.808-3.479-2.096-4.656L54.647 5.95c-1.229-1.281-2.933-2.033-4.716-2.033-1.782 0-3.062 0.672-4.29 1.953L32 20.515V11.37c0-3.396-3.337-6.15-7-6.15s-7 2.753-7 6.15v22.957L1.841 51.089c-1.789 1.866-2.313 4.735-1.286 7.101C1.58 60.555 3.899 62 6.498 62zM49.932 21.473L78.227 51h-3.206C71.431 51 68 52.179 68 55.735V83H32V55.735C32 52.179 27.596 51 24.005 51h-2.367L49.932 21.473z" data-fill-palette-color="accent"></path></g></svg></g></svg></g><g></g></svg></g></svg></g></svg></g></svg></g></svg><rect width="320" height="360" fill="none" stroke="none" visibility="hidden"></rect></g></svg></g></svg>